<?xml version="1.0" encoding="UTF-8"?>
<svg width="1024px" height="2386px" viewBox="0 0 1024 2386" version="1.1" xmlns="http://www.w3.org/2000/svg" xmlns:xlink="http://www.w3.org/1999/xlink">
    <!-- Generator: Sketch 50.2 (55047) - http://www.bohemiancoding.com/sketch -->
    <title>Group 2</title>
    <desc>Created with Sketch.</desc>
    <defs></defs>
    <g id="Page-1" stroke="none" stroke-width="1" fill="none" fill-rule="evenodd">
        <g id="Desktop-Copy-2" transform="translate(0.000000, -135.000000)">
            <g id="Group-2" transform="translate(0.000000, 134.000000)">
                <polygon id="Path-2" fill="#FFF0F0" points="4.65738384 0.943973841 291.803934 271.007081 1023.45765 76.1513196 291.803934 349.132681"></polygon>
                <polygon id="Path-3" fill="#F7DFB9" points="0 828.46951 170.232891 594.252297 772.328 635.315081 1023.75767 357.206106 772.328 701.600077 170.232891 635.315081"></polygon>
                <g id="Group" transform="translate(897.000000, 222.000000)" fill="#CDECF8">
                    <circle id="Oval" cx="15" cy="60" r="15"></circle>
                    <circle id="Oval" cx="16.5" cy="13.5" r="13.5"></circle>
                    <circle id="Oval" cx="51" cy="45" r="9"></circle>
                </g>
                <g id="Group" transform="translate(74.000000, 1288.500000) scale(-1, -1) translate(-74.000000, -1288.500000) translate(44.000000, 1251.000000)" fill="#FFF0F0">
                    <circle id="Oval" cx="15" cy="60" r="15"></circle>
                    <circle id="Oval" cx="16.5" cy="13.5" r="13.5"></circle>
                    <circle id="Oval" cx="51" cy="45" r="9"></circle>
                </g>
                <g id="Group" transform="translate(957.000000, 2349.500000) scale(-1, -1) translate(-957.000000, -2349.500000) translate(927.000000, 2312.000000)" fill="#F7DFB9">
                    <circle id="Oval" cx="15" cy="60" r="15"></circle>
                    <circle id="Oval" cx="16.5" cy="13.5" r="13.5"></circle>
                    <circle id="Oval" cx="51" cy="45" r="9"></circle>
                </g>
                <polygon id="Path-4" fill="#E7D9F3" points="5.41752375 997.623648 136.818954 1109.47022 362.623964 1014.49838 671.26223 1152.75274 1021.16039 944.067467 671.26223 1205.83456 362.623964 1074.95102 136.818954 1185.61871"></polygon>
                <polygon id="Path-5" fill="#CDECF8" points="0 1612.97055 138.509799 1449 512 1578.81418 1024 1449 512 1645.40366 138.509799 1492.9579"></polygon>
                <polygon id="Path-6" fill="#FFD9D0" transform="translate(516.740714, 1990.549876) scale(1, -1) translate(-516.740714, -1990.549876) " points="7.01570203 1921.61822 409.464 2073.06292 1026.46573 1802.62248 409.464 2178.47727"></polygon>
            </g>
        </g>
    </g>
</svg>